<?xml version="1.0" encoding="UTF-8" standalone="no"?>
<!-- Created with Inkscape (http://www.inkscape.org/) -->
<svg
  viewBox="0 0 51.036762 18.304243"
  version="1.1"
  id="svg1"
  xml:space="preserve"
  xmlns="http://www.w3.org/2000/svg"
  xmlns:svg="http://www.w3.org/2000/svg"
>
	<defs id="defs1" />
	<g
     id="layer1"
     transform="translate(-95.499648,-79.291715)"
     >
		<path
       fill="#FFD500"
       d="m 111.90714,97.392357 c -0.0959,-0.10478 -0.20186,-0.28098 -0.23548,-0.39157 l -0.0611,-0.201062 0.11489,-0.0728 c 0.20123,-0.12751 0.41123,-0.0848 0.41123,0.0836 0,0.207612 0.19602,0.365962 0.37027,0.299092 0.249,-0.0956 0.15489,-0.446782 -0.23144,-0.863852 -0.4676,-0.5048 -0.56216,-0.68927 -0.56216,-1.09668 v -0.32826 l 0.17263,-0.1853 0.17263,-0.1853 h 0.33537 0.33537 l 0.16933,0.16933 c 0.0931,0.0931 0.16933,0.28099 0.16933,0.41745 v 0.24811 l -0.1905,0.0271 -0.1905,0.0271 -0.10485,-0.24022 c -0.12597,-0.28861 -0.30811,-0.25778 -0.34549,0.0585 l -0.027,0.22854 0.39651,0.441 c 0.60983,0.67828 0.71729,1.169442 0.33869,1.548042 l -0.20782,0.20782 h -0.32776 -0.32775 z m 2.3344,0.0286 -0.19988,-0.16185 v -1.242622 -1.24262 l 0.19988,-0.16186 c 0.3664,-0.2967 0.95826,-0.20322 1.15791,0.18287 l 0.12387,0.23954 v 0.98207 0.982072 l -0.12387,0.23953 c -0.19965,0.3861 -0.79151,0.47957 -1.15791,0.18287 z m 0.67218,-0.36308 0.1016,-0.10159 v -0.946362 -0.94637 l -0.127,-0.1054 -0.127,-0.1054 -0.127,0.1054 -0.127,0.1054 v 0.94637 0.946362 l 0.1016,0.10159 c 0.0559,0.0559 0.12446,0.1016 0.1524,0.1016 0.0279,0 0.0965,-0.0457 0.1524,-0.1016 z m 4.10032,0.46827 c -0.0592,-0.0238 -0.16396,-0.15226 -0.23283,-0.28544 l -0.12522,-0.24215 v -1.231862 -1.23187 h 0.254 0.254 v 1.2173 1.217292 l 0.13616,0.113 0.13616,0.113 0.11784,-0.16115 0.11784,-0.16114 v -1.169152 -1.16915 h 0.21167 0.21166 v 1.35466 1.354662 l -0.16933,0.16933 -0.16933,0.16934 -0.3175,-0.007 c -0.17463,-0.004 -0.36593,-0.0262 -0.42512,-0.05 z m 6.06483,-0.10519 -0.19988,-0.16185 v -1.242622 -1.24262 l 0.19988,-0.16186 c 0.36641,-0.2967 0.95826,-0.20322 1.15792,0.18287 l 0.12387,0.23954 v 0.98207 0.982072 l -0.12387,0.23953 c -0.19966,0.3861 -0.79151,0.47957 -1.15792,0.18287 z m 0.67219,-0.36308 0.1016,-0.10159 v -0.946362 -0.94637 l -0.127,-0.1054 -0.127,-0.1054 -0.127,0.1054 -0.127,0.1054 v 0.94637 0.946362 l 0.1016,0.10159 c 0.0559,0.0559 0.12446,0.1016 0.1524,0.1016 0.0279,0 0.0965,-0.0457 0.1524,-0.1016 z m 4.35942,0.33444 c -0.0959,-0.10478 -0.20187,-0.28098 -0.23549,-0.39157 l -0.0611,-0.201062 0.11489,-0.0728 c 0.20123,-0.12751 0.41123,-0.0848 0.41123,0.0836 0,0.207612 0.19602,0.365962 0.37027,0.299092 0.249,-0.0956 0.15489,-0.446782 -0.23144,-0.863852 -0.4676,-0.5048 -0.56216,-0.68927 -0.56216,-1.09668 v -0.32826 l 0.17263,-0.1853 0.17263,-0.1853 h 0.33537 0.33537 l 0.16933,0.16933 c 0.0931,0.0931 0.16933,0.28099 0.16933,0.41745 v 0.24811 l -0.1905,0.0271 -0.1905,0.0271 -0.10485,-0.24022 c -0.12597,-0.28861 -0.30811,-0.25778 -0.34549,0.0585 l -0.027,0.22854 0.3965,0.441 c 0.60983,0.67828 0.71729,1.169442 0.33869,1.548042 l -0.20782,0.20782 h -0.32775 -0.32776 z M 98.589985,96.016485 v -1.48166 h 0.329779 0.329779 l 0.154028,0.762 c 0.170028,0.84115 0.238384,0.93119 0.319907,0.42137 0.02996,-0.18734 0.09513,-0.53024 0.144837,-0.762 l 0.09037,-0.42137 h 0.331655 0.33165 v 1.48166 1.481662 h -0.254 -0.254 l -0.009,-0.698492 -0.009,-0.6985 -0.118181,0.508 c -0.065,0.279402 -0.138323,0.596192 -0.162947,0.703992 l -0.04477,0.19599 -0.182468,-0.0267 -0.182469,-0.0267 -0.186828,-0.846662 -0.186827,-0.84667 -0.0087,0.86784 -0.0087,0.867822 h -0.211667 -0.211667 z m 3.132665,0 v -1.48166 h 0.635 0.635 v 0.21166 0.21167 h -0.381 -0.381 v 0.381 0.381 h 0.29634 0.29633 v 0.254 0.254 h -0.29633 -0.29634 v 0.42333 0.423332 h 0.381 0.381 v 0.21166 0.21167 h -0.635 -0.635 z m 2.286,0 v -1.48166 h 0.49863 0.49862 l 0.19988,0.16185 0.19987,0.16185 v 1.15796 1.157952 l -0.19987,0.16186 -0.19988,0.16185 h -0.49862 -0.49863 z m 0.82974,0.956732 0.1016,-0.10159 v -0.855142 -0.85513 l -0.1016,-0.1016 c -0.0559,-0.0559 -0.15113,-0.1016 -0.21167,-0.1016 h -0.11007 v 1.05833 1.058332 h 0.11007 c 0.0605,0 0.15579,-0.0457 0.21167,-0.1016 z m 1.6256,-0.956732 v -1.48166 h 0.254 0.254 v 1.48166 1.481662 h -0.254 -0.254 z m 1.35994,1.375832 c 0.003,-0.0582 0.10869,-0.715432 0.23508,-1.460492 l 0.2298,-1.35467 0.33885,-0.0251 0.33886,-0.0251 0.23154,1.42212 c 0.12735,0.78217 0.23103,1.450682 0.2304,1.485612 -6.3e-4,0.0349 -0.1112,0.0635 -0.24572,0.0635 h -0.24457 l -0.0556,-0.29633 -0.0556,-0.29633 h -0.204 -0.20399 l -0.0556,0.29633 -0.0556,0.29633 h -0.24458 c -0.14203,0 -0.24236,-0.0444 -0.2393,-0.10583 z m 0.89573,-1.312332 c -0.0289,-0.17462 -0.0573,-0.3937 -0.0631,-0.48683 -0.006,-0.0931 -0.0422,-0.0169 -0.0807,0.16933 -0.1054,0.50959 -0.0939,0.635 0.0583,0.635 h 0.13808 z m 7.81966,-0.0635 v -1.48166 h 0.254 0.254 v 1.27 1.269992 h 0.381 0.381 v 0.21166 0.21167 h -0.635 -0.635 z m 4.99534,0.21167 v -1.27 h -0.254 -0.254 v -0.21167 -0.21166 h 0.71966 0.71967 v 0.21166 0.21167 h -0.21167 -0.21166 v 1.27 1.269992 h -0.254 -0.254 z m 1.86266,-0.21167 v -1.48166 h 0.254 0.254 v 1.48166 1.481662 h -0.254 -0.254 z m 3.97934,-0.005 v -1.48703 l 0.26802,0.0265 0.26803,0.0265 0.23348,0.80433 0.23348,0.80434 0.006,-0.8255 0.007,-0.8255 h 0.254 0.254 v 1.48703 1.487022 l -0.2727,-0.0265 -0.27269,-0.0265 -0.25648,-0.804332 -0.25647,-0.80433 -0.0242,0.8255 -0.0242,0.825492 h -0.2086 -0.2086 z m 18.542,1.026682 c -0.16299,-0.0615 -0.56283,-0.234482 -0.88853,-0.384522 -1.62618,-0.74914 -4.34237,-1.8402 -5.91515,-2.37604 l -0.83467,-0.28438 -0.12987,-0.1982 -0.12987,-0.19821 0.0955,-3.15032 c 0.0525,-1.73267 0.13732,-4.86481 0.18846,-6.96031 0.0511,-2.0955 0.12709,-3.89573 0.16876,-4.0005 l 0.0758,-0.1905 h 3.81181 3.81182 l 0.18184,0.18184 0.18185,0.18185 -0.0592,1.81216 c -0.079,2.42038 0.19287,2.16346 -2.27302,2.14782 l -1.8415,-0.0117 -4.4e-4,0.3205 c -2.4e-4,0.17627 -0.025,0.69093 -0.055,1.14368 l -0.0545,0.82318 0.72151,-0.017 0.7215,-0.017 0.14584,0.12105 0.14585,0.12104 -0.0292,1.07945 -0.0292,1.07945 -0.10293,0.10285 c -0.0566,0.0566 -0.30426,0.10806 -0.55033,0.11442 -0.24607,0.006 -0.62838,0.0191 -0.84957,0.0283 l -0.40217,0.0167 v 0.75456 0.75456 l 0.35983,0.058 c 1.07295,0.17286 2.48145,0.64538 3.65722,1.22691 l 0.42795,0.21167 v 2.79284 2.792832 l -0.127,0.0173 c -0.0699,0.01 -0.26035,-0.0329 -0.42333,-0.0944 z m -11.98034,-4.333012 c -0.60536,-0.1603 -1.61501,-0.40429 -2.24366,-0.54219 -2.43126,-0.53334 -2.22742,-0.34266 -2.45781,-2.29918 -0.095,-0.80682 -0.20755,-1.75269 -0.2501,-2.10194 -0.0425,-0.34925 -0.17684,-1.4732 -0.29843,-2.49766 -0.25225,-2.12555 -0.33273,-2.78902 -0.4827,-3.97934 -0.0587,-0.46566 -0.10726,-1.09431 -0.10798,-1.397 l -0.001,-0.55033 1.71059,-0.0229 1.71059,-0.0229 0.0802,0.1499 c 0.0441,0.0825 0.10433,0.34041 0.13379,0.57324 0.0295,0.23284 0.0901,0.70909 0.13468,1.05834 0.0446,0.34925 0.1765,1.4351 0.29306,2.413 0.11656,0.9779 0.24839,2.0447 0.29295,2.37066 0.0446,0.32597 0.10711,0.84032 0.13901,1.143 l 0.058,0.55034 0.0665,-0.16934 c 0.0366,-0.0931 0.20154,-0.74083 0.36662,-1.43933 0.16508,-0.6985 0.47351,-1.9939 0.68541,-2.87867 0.2119,-0.88476 0.48709,-2.04681 0.61153,-2.58233 0.12444,-0.53552 0.28345,-1.02129 0.35335,-1.0795 l 0.12709,-0.10583 h 1.62564 1.62564 l 0.0508,0.20263 c 0.028,0.11144 -0.0833,0.84487 -0.24717,1.62983 -0.16391,0.78496 -0.43227,2.0749 -0.59635,2.86654 -0.36704,1.7709 -0.36862,1.77843 -0.7499,3.59833 -0.17073,0.81492 -0.34218,1.63407 -0.381,1.82033 -0.74802,3.58937 -0.72961,3.51367 -0.85421,3.51367 -0.0378,0 -0.11943,0.0158 -0.18144,0.035 -0.062,0.0193 -0.60806,-0.0961 -1.21343,-0.25641 z m -35.491404,-0.002 c -0.0292,-0.0761 -0.03023,-2.17019 -0.0023,-4.65355 l 0.05079,-4.5152 -1.387777,0.018 -1.387776,0.018 -0.110102,-0.11001 -0.110103,-0.11002 v -1.88746 -1.88745 l 0.116786,-0.14107 0.116786,-0.14106 4.70921,0.0219 4.70922,0.0219 0.0194,1.94733 0.0194,1.94734 -0.11236,0.14676 -0.11236,0.14676 -1.56747,0.0566 -1.56747,0.0566 -0.054,2.71761 c -0.0297,1.49469 -0.0616,3.39151 -0.0709,4.21515 l -0.0169,1.49754 -0.17367,0.087 c -0.67441,0.33771 -2.990315,0.75078 -3.068403,0.54729 z m 6.999554,-1.34515 -0.10691,-0.12882 0.0542,-2.34768 c 0.0298,-1.29122 0.074,-3.66212 0.0983,-5.26867 0.0483,-3.19819 0.0944,-4.05177 0.22753,-4.21217 l 0.0878,-0.10583 1.5348,10e-4 c 0.84414,7.2e-4 1.59195,0.0377 1.6618,0.0822 l 0.127,0.0809 -0.0196,1.5476 c -0.0108,0.85118 -0.0433,2.18901 -0.0722,2.97295 l -0.0526,1.42534 0.4955,-0.0532 c 0.27253,-0.0293 0.67171,-0.0735 0.88706,-0.0983 l 0.39155,-0.0451 0.0529,-0.38633 c 0.0291,-0.21248 0.0529,-1.49734 0.0529,-2.85525 v -2.46891 l 0.1016,-0.1016 0.1016,-0.1016 h 1.49912 1.49912 l 0.0578,0.41992 c 0.0318,0.23096 0.037,0.52623 0.0117,0.65617 -0.0253,0.12993 -0.0673,2.06504 -0.0932,4.30024 -0.0528,4.53836 -0.10447,5.77259 -0.24576,5.86448 -0.14207,0.0924 -2.40879,0.24132 -2.5989,0.17075 l -0.16373,-0.0608 v -1.36955 -1.36954 l -0.76943,0.0581 c -0.42319,0.0319 -0.87788,0.0798 -1.01042,0.10628 l -0.241,0.0482 -0.0267,1.39077 -0.0267,1.39078 -0.12627,0.0779 c -0.0695,0.0428 -0.33615,0.10239 -0.59267,0.13233 -0.25651,0.03 -0.95671,0.12679 -1.55598,0.21521 -0.59927,0.0884 -1.09943,0.16076 -1.11147,0.16076 -0.012,0 -0.07,-0.058 -0.12879,-0.12883 z m 20.53319,-0.3146 c -0.32597,-0.0436 -0.84032,-0.12358 -1.143,-0.17775 l -0.55034,-0.0985 -0.0608,-1.524 c -0.0335,-0.8382 -0.10545,-3.38536 -0.16,-5.66035 l -0.0992,-4.13636 0.11768,-0.0745 c 0.0647,-0.041 0.80571,-0.0751 1.64665,-0.0758 l 1.52898,-10e-4 0.16435,0.1202 0.16435,0.1202 -0.0215,2.31397 c -0.0436,4.68881 -0.11353,8.75614 -0.15509,9.02379 l -0.0427,0.27517 -0.39833,-0.0127 c -0.21908,-0.007 -0.66503,-0.0484 -0.99099,-0.092 z m -4.81431,-0.44857 c -0.6455,-0.0622 -1.22435,-0.13261 -1.28633,-0.1564 -0.062,-0.0238 -0.30807,-0.65487 -0.54685,-1.40242 l -0.43417,-1.35918 h -0.67134 -0.67134 v 1.30196 1.30197 l -0.12946,0.10745 -0.12947,0.10744 -1.20992,0.0411 -1.20993,0.0411 -0.19463,-0.10416 -0.19464,-0.10417 0.0615,-5.43149 0.0615,-5.43149 0.0859,-0.10583 0.0859,-0.10583 2.76247,4.9e-4 c 3.83236,6.8e-4 4.19117,0.0898 5.58504,1.38744 1.12645,1.04865 0.71042,3.89832 -0.8654,5.92766 l -0.37737,0.48598 0.54776,1.61572 c 0.30126,0.88864 0.53636,1.69551 0.52242,1.79304 l -0.0253,0.17733 -0.29634,0.0128 c -0.16298,0.007 -0.82447,-0.0382 -1.46997,-0.10041 z m -1.56146,-6.04954 0.4604,-0.41035 0.10116,-0.33764 0.10116,-0.33764 -0.0779,-0.20495 c -0.0429,-0.11273 -0.17339,-0.26751 -0.29007,-0.34396 l -0.21215,-0.13901 -1.01487,-0.0573 -1.01487,-0.0574 0.0226,1.1764 c 0.0124,0.64702 0.0276,1.1764 0.0338,1.1764 0.006,0 0.33046,-0.0122 0.72075,-0.0271 l 0.70962,-0.0271 z"
       id="path3" />
	</g>
	<g
     id="layer2"
     transform="translate(-95.499648,-79.291715)" />
</svg>